<?xml version="1.0" encoding="utf-8"?>
<!-- Generator: Adobe Illustrator 24.1.1, SVG Export Plug-In . SVG Version: 6.00 Build 0)  -->
<svg version="1.1" id="Layer_1" xmlns="http://www.w3.org/2000/svg" xmlns:xlink="http://www.w3.org/1999/xlink" x="0px" y="0px"
	 viewBox="0 0 1600 992" style="enable-background:new 0 0 1600 992;" xml:space="preserve">
<style type="text/css">
	.st0{opacity:0.3;}
	.st1{fill:none;stroke:#F7EDD1;stroke-width:5;stroke-miterlimit:10;}
	.st2{fill:none;stroke:#F28482;stroke-width:5;stroke-miterlimit:10;}
	.st3{fill:none;stroke:#000000;stroke-width:5;stroke-miterlimit:10;}
	.st4{fill:none;stroke:#84B99D;stroke-width:5;stroke-miterlimit:10;}
	.st5{fill:none;stroke:#F6A460;stroke-width:5;stroke-miterlimit:10;}
	.st6{fill:none;stroke:#011627;stroke-width:5;stroke-miterlimit:10;}
	.st7{fill:#011627;}
</style>
<path d="M1612.5-4.5v1011H-9.5V-4.5H1612.5 M1613.5-5.5h-1624v1013h1624V-5.5z"/>
<g class="st0">
	<g class="st0">
		<polygon class="st1" points="945.2,246.3 914.4,206.9 883.6,246.3 852.8,285.8 914.5,285.8 976.1,285.7 		"/>
		<polygon class="st1" points="843.2,728.2 812.4,688.8 781.6,728.2 750.8,767.7 812.5,767.6 874.1,767.6 		"/>
		<polygon class="st2" points="1196.8,876.2 1165.9,836.7 1135.2,876.2 1104.4,915.6 1166,915.6 1227.6,915.6 		"/>
		<polygon class="st3" points="1400.1,573.5 1416,529.5 1356.6,541.3 1297,553.2 1340.6,585.3 1384.2,617.5 		"/>
		<polygon class="st4" points="386.8,62.8 402.7,18.8 343.2,30.6 283.7,42.5 327.3,74.6 370.9,106.8 		"/>
		<polygon class="st2" points="344.6,1013.3 360.5,969.3 301,981.1 241.5,993 285.1,1025.1 328.7,1057.3 		"/>
		<polygon class="st5" points="1462.6,112 1515.9,89.2 1462.5,66.4 1409.1,43.7 1409.2,89.2 1409.2,134.8 		"/>
		<polygon class="st5" points="343.3,566.8 396.6,544 343.2,521.3 289.8,498.5 289.9,544 289.9,589.6 		"/>
		<path class="st5" d="M1049.4,492.2c0,19.1-20.9,34.5-46.7,34.5s-46.8-15.5-46.8-34.5s20.9-34.5,46.7-34.5
			C1028.4,457.7,1049.4,473.2,1049.4,492.2z"/>
		<path class="st3" d="M813.2,106.8c0,19.1-20.9,34.5-46.7,34.5s-46.8-15.5-46.8-34.5s20.9-34.5,46.8-34.5S813.2,87.7,813.2,106.8z"
			/>
		<path class="st1" d="M594.9,544.1c0-19.1,20.9-34.5,46.8-34.5s46.8,15.5,46.8,34.5"/>
		<path class="st2" d="M103.1,263.6c0-19.1,20.8-34.5,46.5-34.5s46.5,15.5,46.5,34.5"/>
		<path class="st4" d="M1281.4,320.2c-25.8,0-46.8-15.4-46.8-34.4s20.9-34.4,46.8-34.4"/>
		<path class="st6" d="M657.4,27.5c-25.8,0-46.8-15.4-46.8-34.4s20.9-34.4,46.8-34.4"/>
		<path class="st4" d="M179.1,762.7c0,19.1-20.9,34.5-46.8,34.5s-46.8-15.4-46.8-34.5s20.9-34.5,46.8-34.5S179.1,743.7,179.1,762.7z
			"/>
		<path class="st7" d="M1574,772.7c23,0,41.8,13.3,41.8,29.5s-18.7,29.5-41.8,29.5s-41.8-13.3-41.8-29.5S1551,772.7,1574,772.7
			 M1574,767.7c-25.8,0-46.8,15.5-46.8,34.5s20.9,34.5,46.8,34.5c25.8,0,46.8-15.5,46.8-34.5S1599.8,767.7,1574,767.7L1574,767.7z"
			/>
		<rect x="1491.4" y="251.4" class="st2" width="93" height="68.7"/>
		<rect x="440" y="285.8" class="st1" width="93" height="68.7"/>
		<rect x="435.4" y="724.4" class="st5" width="93" height="68.7"/>
		<path class="st7" d="M1193.7-36.2v58.7h-83v-58.7H1193.7 M1198.7-41.2h-93v68.7h93V-41.2z"/>
		<path class="st4" d="M972.1,657.4c-20.3,0-16.8-26.6-42.7-26.6"/>
		<path class="st4" d="M1057.4,657.4c-20.3,0-16.8-26.6-42.7-26.6"/>
		<path class="st4" d="M972.1,657.4c20.3,0,16.8-26.6,42.7-26.6"/>
		<path class="st4" d="M1057.4,657.4c20.3,0,16.8-26.6,42.7-26.6"/>
		<path class="st4" d="M1331.8,438.6c-20.3,0-16.8-26.6-42.7-26.6"/>
		<path class="st4" d="M1417.3,438.6c-20.3,0-16.8-26.6-42.7-26.6"/>
		<path class="st4" d="M1331.8,438.6c20.3,0,16.8-26.6,42.7-26.6"/>
		<path class="st4" d="M1417.3,438.6c20.3,0,16.8-26.6,42.7-26.6"/>
		<path class="st6" d="M144.2,406.5c-20.3,0-16.8-26.6-42.7-26.6"/>
		<path class="st6" d="M229.6,406.5c-20.3,0-16.8-26.6-42.7-26.6"/>
		<path class="st6" d="M144.2,406.5c20.3,0,16.8-26.6,42.7-26.6"/>
		<path class="st6" d="M229.6,406.5c20.3,0,16.8-26.6,42.7-26.6"/>
		<path class="st6" d="M979.1,50.4c0,15-36,12.4-36,31.5"/>
		<path class="st6" d="M979.1-12.7c0,15-36,12.4-36,31.5"/>
		<path class="st6" d="M979.1,50.4c0-15-36-12.4-36-31.5"/>
		<path class="st2" d="M717.3,380.4c0,15-36,12.4-36,31.5"/>
		<path class="st2" d="M717.3,317.3c0,15-36,12.4-36,31.5"/>
		<path class="st2" d="M717.3,380.4c0-15-36-12.4-36-31.5"/>
		<path class="st2" d="M717.3,317.3c0-15-36-12.4-36-31.5"/>
		<path class="st4" d="M1427.1,907.7c0,15-36,12.4-36,31.5"/>
		<path class="st4" d="M1427.1,844.6c0,15-36,12.4-36,31.5"/>
		<path class="st4" d="M1427.1,907.7c0-15-36-12.4-36-31.5"/>
		<path class="st4" d="M1427.1,844.6c0-15-36-12.4-36-31.5"/>
		<path class="st5" d="M546.4,957.5c0,15-36,12.4-36,31.5"/>
		<path class="st5" d="M546.4,894.4c0,15-36,12.4-36,31.5"/>
		<path class="st5" d="M546.4,957.5c0-15-36-12.4-36-31.6"/>
		<path class="st5" d="M546.4,894.4c0-15-36-12.4-36-31.6"/>
		<line class="st3" x1="1074.4" y1="728.2" x2="1179.8" y2="728.2"/>
		<line class="st5" x1="38.5" y1="503.2" x2="143.9" y2="503.2"/>
		<line class="st2" x1="1082.3" y1="141.3" x2="1187.7" y2="141.3"/>
		<line class="st3" x1="729.2" y1="975.6" x2="803.7" y2="920.6"/>
		<line class="st5" x1="112.3" y1="20.7" x2="186.9" y2="-34.4"/>
		<line class="st3" x1="1550.3" y1="585" x2="1624.9" y2="530"/>
	</g>
	<line class="st3" x1="546.2" y1="166.6" x2="501.4" y2="135.6"/>
	<line class="st3" x1="502.8" y1="167.7" x2="544.8" y2="134.6"/>
	<line class="st4" x1="597.7" y1="642.9" x2="552.9" y2="611.9"/>
	<line class="st4" x1="554.3" y1="644" x2="596.3" y2="610.8"/>
	<line class="st4" x1="52.5" y1="909" x2="7.7" y2="878"/>
	<line class="st4" x1="9.1" y1="910.1" x2="51.1" y2="877"/>
	<line class="st3" x1="32.9" y1="121.3" x2="-11.9" y2="90.3"/>
	<line class="st3" x1="-10.5" y1="122.4" x2="31.5" y2="89.2"/>
	<line class="st2" x1="1626.4" y1="165.8" x2="1581.6" y2="134.8"/>
	<line class="st2" x1="1583" y1="166.9" x2="1625.1" y2="133.7"/>
	<line class="st2" x1="1097.8" y1="334.7" x2="1053" y2="303.6"/>
	<line class="st2" x1="1054.4" y1="335.7" x2="1096.4" y2="302.6"/>
	<line class="st3" x1="1316.3" y1="703.3" x2="1271.5" y2="672.2"/>
	<line class="st3" x1="1272.9" y1="704.3" x2="1314.9" y2="671.2"/>
	<line class="st3" x1="1281.5" y1="1003.5" x2="1236.7" y2="972.5"/>
	<line class="st3" x1="1238.1" y1="1004.6" x2="1280.1" y2="971.5"/>
	<polygon class="st1" points="879.2,216.3 848.3,176.9 817.6,216.3 786.8,255.8 848.4,255.8 910,255.7 	"/>
	<polygon class="st1" points="777.2,698.2 746.3,658.8 715.6,698.2 684.8,737.7 746.4,737.6 808,737.6 	"/>
	<polygon class="st2" points="1130.8,846.2 1099.9,806.7 1069.1,846.2 1038.4,885.6 1100,885.6 1161.6,885.6 	"/>
	<polygon class="st2" points="1334.1,543.5 1350,499.5 1290.5,511.4 1231,523.2 1274.6,555.3 1318.2,587.5 	"/>
	<polygon class="st4" points="320.8,32.8 336.7,-11.2 277.2,0.7 217.7,12.5 261.3,44.6 304.9,76.8 	"/>
	<polygon class="st2" points="278.6,983.3 294.5,939.3 235,951.1 175.5,963 219.1,995.1 262.7,1027.3 	"/>
	<polygon class="st5" points="1396.5,82 1449.9,59.2 1396.5,36.4 1343.1,13.7 1343.2,59.2 1343.2,104.8 	"/>
	<polygon class="st5" points="277.2,536.8 330.6,514 277.2,491.3 223.8,468.5 223.8,514.1 223.9,559.6 	"/>
	<path class="st5" d="M983.3,462.2c0,19.1-20.9,34.5-46.7,34.5s-46.8-15.5-46.8-34.5s20.9-34.5,46.8-34.5S983.3,443.2,983.3,462.2z"
		/>
	<path class="st7" d="M700.4,47.3c23,0,41.8,13.3,41.8,29.5s-18.7,29.5-41.8,29.5s-41.8-13.3-41.8-29.5S677.3,47.3,700.4,47.3
		 M700.4,42.3c-25.8,0-46.8,15.5-46.8,34.5s20.9,34.5,46.8,34.5s46.8-15.5,46.8-34.5S726.2,42.3,700.4,42.3z"/>
	<path class="st1" d="M528.9,514.1c0-19.1,20.9-34.5,46.8-34.5s46.7,15.5,46.7,34.5"/>
	<path class="st2" d="M37,233.6c0-19.1,20.8-34.5,46.5-34.5s46.5,15.5,46.5,34.5"/>
	<path class="st4" d="M1215.4,290.2c-25.8,0-46.8-15.4-46.8-34.4s20.9-34.4,46.8-34.4"/>
	<path class="st4" d="M113.1,732.7c0,19.1-20.9,34.5-46.8,34.5s-46.8-15.4-46.8-34.5s20.9-34.5,46.8-34.5S113.1,713.7,113.1,732.7z"
		/>
	<path class="st7" d="M1508,742.7c23,0,41.8,13.3,41.8,29.5s-18.7,29.5-41.8,29.5c-23,0-41.8-13.3-41.8-29.5S1485,742.6,1508,742.7
		 M1508,737.6c-25.8,0-46.8,15.5-46.8,34.5s20.9,34.5,46.8,34.5s46.8-15.5,46.8-34.5S1533.8,737.6,1508,737.6z"/>
	<rect x="1425.4" y="221.4" class="st2" width="93" height="68.7"/>
	<rect x="374" y="255.8" class="st1" width="93" height="68.7"/>
	<rect x="369.4" y="694.4" class="st5" width="93" height="68.7"/>
	<path class="st4" d="M906,627.4c-20.3,0-16.8-26.6-42.7-26.6"/>
	<path class="st4" d="M991.4,627.4c-20.3,0-16.8-26.6-42.7-26.6"/>
	<path class="st4" d="M906,627.4c20.3,0,16.8-26.6,42.7-26.6"/>
	<path class="st4" d="M991.4,627.4c20.3,0,16.8-26.6,42.7-26.6"/>
	<path class="st4" d="M1265.8,408.6c-20.3,0-16.8-26.6-42.7-26.6"/>
	<path class="st4" d="M1351.2,408.6c-20.3,0-16.8-26.6-42.7-26.6"/>
	<path class="st4" d="M1265.8,408.6c20.3,0,16.8-26.6,42.7-26.6"/>
	<path class="st4" d="M1351.2,408.6c20.3,0,16.8-26.6,42.7-26.6"/>
	<path class="st6" d="M78.1,376.5c-20.3,0-16.8-26.6-42.7-26.6"/>
	<path class="st6" d="M163.5,376.5c-20.3,0-16.8-26.6-42.7-26.6"/>
	<path class="st6" d="M78.1,376.5c20.3,0,16.8-26.6,42.7-26.6"/>
	<path class="st6" d="M163.5,376.5c20.3,0,16.8-26.6,42.7-26.6"/>
	<path class="st6" d="M913.1,20.4c0,15-36,12.4-36,31.6"/>
	<path class="st6" d="M913.1,20.4c0-15-36-12.4-36-31.5"/>
	<path class="st2" d="M651.2,350.4c0,15-36,12.4-36,31.6"/>
	<path class="st2" d="M651.2,287.3c0,15-36,12.4-36,31.5"/>
	<path class="st2" d="M651.2,350.4c0-15-36-12.4-36-31.5"/>
	<path class="st2" d="M651.2,287.3c0-15-36-12.4-36-31.6"/>
	<path class="st4" d="M1361.1,877.7c0,15-36,12.4-36,31.6"/>
	<path class="st4" d="M1361.1,814.6c0,15-36,12.4-36,31.5"/>
	<path class="st4" d="M1361.1,877.7c0-15-36-12.4-36-31.5"/>
	<path class="st4" d="M1361.1,814.6c0-15-36-12.4-36-31.5"/>
	<path class="st5" d="M480.3,927.5c0,15-36,12.4-36,31.5"/>
	<path class="st5" d="M480.3,864.4c0,15-36,12.4-36,31.5"/>
	<path class="st5" d="M480.3,927.5c0-15-36-12.4-36-31.5"/>
	<path class="st5" d="M480.3,864.4c0-15-36-12.4-36-31.5"/>
	<line class="st5" x1="1008.4" y1="698.2" x2="1113.8" y2="698.2"/>
	<line class="st5" x1="-27.6" y1="473.2" x2="77.8" y2="473.2"/>
	<line class="st2" x1="1016.3" y1="111.3" x2="1121.6" y2="111.3"/>
	<line class="st3" x1="663.1" y1="945.6" x2="737.6" y2="890.6"/>
	<line class="st3" x1="1484.3" y1="555.1" x2="1558.8" y2="500"/>
	<path class="st1" d="M931.9,882.5c-8.6,4-20,2.1-25.4-4.3s-2.8-14.8,5.8-18.8s20-2.1,25.4,4.3S940.4,878.5,931.9,882.5z"/>
	<path class="st4" d="M786.8,508.3c-8.6,4-20,2.1-25.4-4.3s-2.8-14.8,5.8-18.8s20-2.1,25.4,4.3S795.4,504.3,786.8,508.3z"/>
	<path class="st1" d="M123.2,623.4c-8.6,4-20,2.1-25.4-4.3s-2.8-14.8,5.8-18.8s20-2.1,25.4,4.3C134.3,611,131.7,619.4,123.2,623.4z"
		/>
	<path class="st7" d="M302,175.1L302,175.1c4.9,0,9.4,1.8,11.8,4.6c1.3,1.4,1.9,3.2,1.5,5.1c-0.5,2.3-2.5,4.5-5.6,5.9
		c-2.4,1.1-5,1.6-7.7,1.6c-4.9,0-9.4-1.8-11.8-4.6c-1.3-1.4-1.9-3.3-1.5-5.1c0.5-2.3,2.5-4.5,5.6-5.9
		C296.7,175.6,299.3,175,302,175.1 M302,170.1c-3.4,0-6.7,0.7-9.8,2.1c-8.6,4-11.2,12.4-5.8,18.8c3.5,4.1,9.5,6.4,15.6,6.4
		c3.4,0,6.7-0.7,9.8-2.1c8.6-4,11.2-12.4,5.8-18.8C314.1,172.3,308.1,170.1,302,170.1L302,170.1z"/>
	<path class="st1" d="M1324.7,188.4c-8.6,4-20,2.1-25.4-4.3c-5.4-6.4-2.8-14.8,5.8-18.8c8.6-4,20-2.1,25.4,4.3
		C1335.9,176,1333.3,184.4,1324.7,188.4z"/>
	<path class="st1" d="M1584.8,673.1c-8.6,4-20,2.1-25.4-4.3c-5.4-6.4-2.8-14.8,5.8-18.8c8.6-4,20-2.1,25.4,4.3
		C1596,660.7,1593.4,669.1,1584.8,673.1z"/>
</g>
</svg>
