<svg id="Layer_1" data-name="Layer 1" xmlns="http://www.w3.org/2000/svg" viewBox="0 0 1600 992"><defs><style>.cls-1{fill:#011627;}.cls-2{opacity:0.8;}.cls-3{opacity:0.3;}.cls-12,.cls-4,.cls-5,.cls-6,.cls-7,.cls-8,.cls-9{fill:none;stroke-miterlimit:10;}.cls-4{stroke:#f7edd1;}.cls-4,.cls-5,.cls-6,.cls-7,.cls-8,.cls-9{stroke-width:5px;}.cls-5{stroke:#f28482;}.cls-6{stroke:#000;}.cls-7{stroke:#84b99d;}.cls-8{stroke:#f6a460;}.cls-12,.cls-9{stroke:#011627;}.cls-10{fill:#f28482;}.cls-11,.cls-12{isolation:isolate;font-size:237.61px;font-family:TrebuchetMS, Trebuchet MS;}.cls-11{fill:#f7edd1;}.cls-12{stroke-width:10px;}</style></defs><rect class="cls-1" x="-10" y="-5" width="1623" height="1012"/><path d="M1612.5-4.5v1011H-9.5V-4.5h1622m1-1H-10.5v1013h1624Z"/><g class="cls-2"><g class="cls-3"><polygon class="cls-4" points="934.79 229.6 903.93 190.18 873.18 229.62 842.4 269.07 904.01 269.03 965.63 269.01 934.79 229.6"/><polygon class="cls-4" points="832.79 711.45 801.94 672.03 771.18 711.48 740.4 750.93 802.01 750.89 863.64 750.87 832.79 711.45"/><polygon class="cls-5" points="1186.34 859.43 1155.49 820 1124.73 859.45 1093.95 898.9 1155.56 898.86 1217.19 898.84 1186.34 859.43"/><polygon class="cls-6" points="1389.68 556.79 1405.6 512.8 1346.11 524.62 1286.58 536.44 1330.18 568.6 1373.78 600.78 1389.68 556.79"/><polygon class="cls-7" points="376.37 46.09 392.28 2.1 332.79 13.92 273.26 25.73 316.87 57.9 360.46 90.08 376.37 46.09"/><polygon class="cls-5" points="334.17 996.58 350.08 952.59 290.59 964.41 231.06 976.23 274.67 1008.39 318.26 1040.57 334.17 996.58"/><polygon class="cls-8" points="1452.12 95.23 1505.48 72.44 1452.09 49.72 1398.69 26.97 1398.75 72.49 1398.77 118.03 1452.12 95.23"/><polygon class="cls-8" points="332.81 550.07 386.16 527.27 332.78 504.55 279.38 481.8 279.43 527.32 279.46 572.86 332.81 550.07"/><path class="cls-8" d="M1038.92,475.52c0,19.08-20.93,34.54-46.74,34.54s-46.75-15.46-46.75-34.54S966.36,441,992.18,441,1038.92,456.44,1038.92,475.52Z"/><path class="cls-6" d="M802.71,90.08c0,19.07-20.93,34.54-46.74,34.54s-46.76-15.47-46.76-34.54S730.15,55.54,756,55.54,802.71,71,802.71,90.08Z"/><path class="cls-4" d="M584.45,527.33c0-19.08,20.94-34.54,46.76-34.54S678,508.25,678,527.33"/><path class="cls-5" d="M92.62,246.89c0-19.07,20.83-34.54,46.53-34.54s46.54,15.47,46.54,34.54"/><path class="cls-7" d="M1271,303.45c-25.83,0-46.76-15.39-46.76-34.38s20.93-34.38,46.76-34.38"/><path class="cls-9" d="M647,10.82c-25.82,0-46.75-15.4-46.75-34.38S621.16-57.95,647-57.95"/><path class="cls-7" d="M168.7,746c0,19.07-20.94,34.54-46.75,34.54S75.19,765.09,75.19,746,96.13,711.48,122,711.48,168.7,726.94,168.7,746Z"/><path class="cls-1" d="M1563.58,755.93c23,0,41.75,13.25,41.75,29.53S1586.6,815,1563.58,815s-41.75-13.25-41.75-29.54,18.73-29.53,41.75-29.53m0-5c-25.82,0-46.75,15.46-46.75,34.53S1537.76,820,1563.58,820s46.75-15.46,46.75-34.54-20.93-34.53-46.75-34.53Z"/><rect class="cls-5" x="1481.01" y="234.72" width="92.99" height="68.71"/><rect class="cls-4" x="429.61" y="269.07" width="92.99" height="68.71"/><rect class="cls-8" x="424.94" y="707.7" width="92.99" height="68.71"/><path class="cls-1" d="M1183.25-52.92V5.79h-83V-52.92h83m5-5h-93V10.79h93Z"/><path class="cls-7" d="M961.64,640.68c-20.31,0-16.81-26.6-42.71-26.6"/><path class="cls-7" d="M1047,640.68c-20.3,0-16.8-26.6-42.7-26.6"/><path class="cls-7" d="M961.64,640.68c20.3,0,16.8-26.6,42.7-26.6"/><path class="cls-7" d="M1047,640.68c20.3,0,16.8-26.6,42.7-26.6"/><path class="cls-7" d="M1321.4,421.87c-20.3,0-16.8-26.6-42.7-26.6"/><path class="cls-7" d="M1406.81,421.87c-20.3,0-16.8-26.6-42.7-26.6"/><path class="cls-7" d="M1321.4,421.87c20.3,0,16.81-26.6,42.71-26.6"/><path class="cls-7" d="M1406.81,421.87c20.3,0,16.8-26.6,42.7-26.6"/><path class="cls-9" d="M133.71,389.73c-20.3,0-16.8-26.6-42.71-26.6"/><path class="cls-9" d="M219.11,389.73c-20.3,0-16.8-26.6-42.7-26.6"/><path class="cls-9" d="M133.71,389.73c20.3,0,16.8-26.6,42.7-26.6"/><path class="cls-9" d="M219.11,389.73c20.3,0,16.81-26.6,42.71-26.6"/><path class="cls-9" d="M968.7,33.65c0,15-36,12.41-36,31.55"/><path class="cls-9" d="M968.7-29.45c0,15-36,12.41-36,31.55"/><path class="cls-9" d="M968.7,33.65c0-15-36-12.42-36-31.55"/><path class="cls-5" d="M706.83,363.72c0,15-36,12.41-36,31.55"/><path class="cls-5" d="M706.83,300.62c0,15-36,12.41-36,31.55"/><path class="cls-5" d="M706.83,363.72c0-15-36-12.41-36-31.55"/><path class="cls-5" d="M706.83,300.62c0-15-36-12.41-36-31.55"/><path class="cls-7" d="M1416.69,891c0,15-36,12.41-36,31.55"/><path class="cls-7" d="M1416.69,827.9c0,15-36,12.41-36,31.55"/><path class="cls-7" d="M1416.69,891c0-15-36-12.41-36-31.55"/><path class="cls-7" d="M1416.69,827.9c0-15-36-12.41-36-31.55"/><path class="cls-8" d="M535.93,940.73c0,15-36,12.41-36,31.55"/><path class="cls-8" d="M535.93,877.63c0,15-36,12.41-36,31.54"/><path class="cls-8" d="M535.93,940.73c0-15-36-12.42-36-31.56"/><path class="cls-8" d="M535.93,877.63c0-15-36-12.42-36-31.56"/><line class="cls-6" x1="1063.97" y1="711.48" x2="1169.35" y2="711.48"/><line class="cls-8" x1="28.03" y1="486.51" x2="133.41" y2="486.51"/><line class="cls-5" x1="1071.85" y1="124.62" x2="1177.22" y2="124.62"/><line class="cls-6" x1="718.71" y1="958.89" x2="793.22" y2="903.84"/><line class="cls-8" x1="101.9" y1="3.96" x2="176.41" y2="-51.09"/><line class="cls-6" x1="1539.9" y1="568.32" x2="1614.41" y2="513.27"/></g><line class="cls-6" x1="535.79" y1="149.91" x2="490.98" y2="118.86"/><line class="cls-6" x1="492.37" y1="150.94" x2="534.4" y2="117.84"/><line class="cls-7" x1="587.27" y1="626.19" x2="542.46" y2="595.15"/><line class="cls-7" x1="543.85" y1="627.23" x2="585.88" y2="594.12"/><line class="cls-7" x1="42.05" y1="892.3" x2="-2.76" y2="861.25"/><line class="cls-7" x1="-1.37" y1="893.33" x2="40.66" y2="860.23"/><line class="cls-6" x1="22.48" y1="104.59" x2="-22.32" y2="73.55"/><line class="cls-6" x1="-20.94" y1="105.63" x2="21.09" y2="72.52"/><line class="cls-5" x1="1616" y1="149.09" x2="1571.19" y2="118.04"/><line class="cls-5" x1="1572.58" y1="150.13" x2="1614.61" y2="117.02"/><line class="cls-5" x1="1087.38" y1="317.97" x2="1042.57" y2="286.92"/><line class="cls-5" x1="1043.96" y1="319" x2="1085.99" y2="285.9"/><line class="cls-6" x1="1305.85" y1="686.55" x2="1261.04" y2="655.5"/><line class="cls-6" x1="1262.42" y1="687.58" x2="1304.45" y2="654.48"/><line class="cls-6" x1="1271.05" y1="986.8" x2="1226.24" y2="955.75"/><line class="cls-6" x1="1227.62" y1="987.83" x2="1269.65" y2="954.73"/><polygon class="cls-4" points="868.76 199.6 837.91 160.18 807.15 199.62 776.37 239.07 837.98 239.03 899.61 239.01 868.76 199.6"/><polygon class="cls-4" points="766.76 681.46 735.91 642.04 705.15 681.48 674.37 720.93 735.98 720.89 797.61 720.87 766.76 681.46"/><polygon class="cls-5" points="1120.31 829.43 1089.46 790.01 1058.7 829.45 1027.92 868.9 1089.53 868.86 1151.16 868.84 1120.31 829.43"/><polygon class="cls-5" points="1323.66 526.79 1339.57 482.8 1280.08 494.63 1220.55 506.44 1264.15 538.6 1307.75 570.78 1323.66 526.79"/><polygon class="cls-7" points="310.34 16.09 326.25 -27.9 266.75 -16.07 207.23 -4.26 250.84 27.9 294.43 60.08 310.34 16.09"/><polygon class="cls-5" points="268.14 966.59 284.06 922.59 224.56 934.41 165.03 946.23 208.64 978.39 252.24 1010.57 268.14 966.59"/><polygon class="cls-8" points="1386.09 65.23 1439.45 42.44 1386.06 19.72 1332.66 -3.02 1332.72 42.5 1332.74 88.03 1386.09 65.23"/><polygon class="cls-8" points="266.77 520.07 320.13 497.27 266.75 474.55 213.35 451.81 213.4 497.33 213.43 542.86 266.77 520.07"/><path class="cls-8" d="M972.89,445.52c0,19.08-20.93,34.54-46.74,34.54S879.4,464.6,879.4,445.52,900.33,411,926.15,411,972.89,426.45,972.89,445.52Z"/><path class="cls-1" d="M689.94,30.54c23,0,41.75,13.25,41.75,29.54S713,89.62,689.94,89.62s-41.76-13.25-41.76-29.54,18.73-29.54,41.76-29.54m0-5c-25.82,0-46.76,15.46-46.76,34.54s20.94,34.54,46.76,34.54,46.75-15.46,46.75-34.54S715.75,25.54,689.94,25.54Z"/><path class="cls-4" d="M518.42,497.33c0-19.07,20.94-34.54,46.76-34.54s46.74,15.47,46.74,34.54"/><path class="cls-5" d="M26.59,216.9c0-19.08,20.84-34.54,46.54-34.54s46.53,15.46,46.53,34.54"/><path class="cls-7" d="M1205,273.46c-25.83,0-46.76-15.4-46.76-34.39s20.93-34.38,46.76-34.38"/><path class="cls-7" d="M102.67,716c0,19.08-20.94,34.54-46.75,34.54S9.17,735.1,9.17,716s20.93-34.54,46.75-34.54S102.67,696.94,102.67,716Z"/><path class="cls-1" d="M1497.55,725.93c23,0,41.75,13.25,41.75,29.54S1520.57,785,1497.55,785s-41.75-13.25-41.75-29.54,18.73-29.54,41.75-29.54m0-5c-25.82,0-46.75,15.46-46.75,34.54S1471.73,790,1497.55,790s46.75-15.47,46.75-34.54S1523.37,720.92,1497.55,720.92Z"/><rect class="cls-5" x="1414.99" y="204.72" width="92.99" height="68.71"/><rect class="cls-4" x="363.58" y="239.07" width="92.99" height="68.71"/><rect class="cls-8" x="358.91" y="677.7" width="92.99" height="68.71"/><path class="cls-7" d="M895.61,610.68c-20.3,0-16.8-26.6-42.71-26.6"/><path class="cls-7" d="M981,610.68c-20.3,0-16.8-26.6-42.7-26.6"/><path class="cls-7" d="M895.61,610.68c20.3,0,16.8-26.6,42.7-26.6"/><path class="cls-7" d="M981,610.68c20.3,0,16.8-26.6,42.71-26.6"/><path class="cls-7" d="M1255.37,391.87c-20.3,0-16.8-26.59-42.7-26.59"/><path class="cls-7" d="M1340.78,391.87c-20.3,0-16.8-26.59-42.7-26.59"/><path class="cls-7" d="M1255.37,391.87c20.3,0,16.81-26.59,42.71-26.59"/><path class="cls-7" d="M1340.78,391.87c20.3,0,16.8-26.59,42.7-26.59"/><path class="cls-9" d="M67.68,359.73c-20.3,0-16.8-26.6-42.71-26.6"/><path class="cls-9" d="M153.08,359.73c-20.3,0-16.8-26.59-42.7-26.59"/><path class="cls-9" d="M67.68,359.73c20.3,0,16.8-26.59,42.7-26.59"/><path class="cls-9" d="M153.08,359.73c20.3,0,16.81-26.6,42.71-26.59"/><path class="cls-9" d="M902.67,3.65c0,15-36,12.41-36,31.55"/><path class="cls-9" d="M902.67,3.65c0-15-36-12.41-36-31.55"/><path class="cls-5" d="M640.8,333.72c0,15-36,12.42-36,31.56"/><path class="cls-5" d="M640.8,270.62c0,15-36,12.42-36,31.55"/><path class="cls-5" d="M640.8,333.72c0-15-36-12.41-36-31.55"/><path class="cls-5" d="M640.8,270.62c0-15-36-12.41-36-31.55"/><path class="cls-7" d="M1350.66,861c0,15-36,12.42-36,31.56"/><path class="cls-7" d="M1350.66,797.9c0,15-36,12.41-36,31.55"/><path class="cls-7" d="M1350.66,861c0-15-36-12.41-36-31.55"/><path class="cls-7" d="M1350.66,797.9c0-15-36-12.41-36-31.55"/><path class="cls-8" d="M469.9,910.73c0,15-36,12.41-36,31.55"/><path class="cls-8" d="M469.9,847.63c0,15-36,12.41-36,31.55"/><path class="cls-8" d="M469.9,910.73c0-15-36-12.42-36-31.55"/><path class="cls-8" d="M469.9,847.63c0-15-36-12.41-36-31.55"/><line class="cls-8" x1="997.94" y1="681.48" x2="1103.32" y2="681.48"/><line class="cls-8" x1="-38" y1="456.51" x2="67.38" y2="456.51"/><line class="cls-5" x1="1005.82" y1="94.62" x2="1111.19" y2="94.62"/><line class="cls-6" x1="652.68" y1="928.9" x2="727.19" y2="873.84"/><line class="cls-6" x1="1473.87" y1="538.33" x2="1548.38" y2="483.28"/><path class="cls-4" d="M921.43,865.81c-8.61,4-20,2.09-25.38-4.28s-2.84-14.75,5.77-18.75,20-2.09,25.38,4.27S930,861.81,921.43,865.81Z"/><path class="cls-7" d="M776.33,491.58c-8.61,4-20,2.09-25.38-4.28s-2.84-14.75,5.77-18.75,20-2.09,25.38,4.27S784.92,487.58,776.33,491.58Z"/><path class="cls-4" d="M112.71,606.66c-8.61,4-20,2.09-25.38-4.27s-2.84-14.76,5.77-18.76,20-2.08,25.38,4.27S121.3,602.66,112.71,606.66Z"/><path class="cls-1" d="M291.55,158.34h0c4.86,0,9.38,1.76,11.8,4.61a5.78,5.78,0,0,1,1.51,5.09c-.5,2.32-2.54,4.46-5.58,5.88a18.3,18.3,0,0,1-7.68,1.62c-4.86,0-9.38-1.76-11.79-4.6a5.81,5.81,0,0,1-1.52-5.1c.5-2.32,2.54-4.46,5.59-5.88a18.28,18.28,0,0,1,7.67-1.62m0-5a23.4,23.4,0,0,0-9.78,2.09c-8.6,4-11.19,12.39-5.77,18.75,3.5,4.11,9.48,6.36,15.6,6.36a23.26,23.26,0,0,0,9.79-2.09c8.59-4,11.18-12.39,5.77-18.75-3.5-4.11-9.49-6.36-15.61-6.36Z"/><path class="cls-4" d="M1314.26,171.69c-8.61,4-20,2.09-25.38-4.27s-2.84-14.76,5.77-18.76,20-2.08,25.39,4.28S1322.86,167.69,1314.26,171.69Z"/><path class="cls-4" d="M1574.39,656.38c-8.61,4-20,2.09-25.39-4.27s-2.83-14.75,5.78-18.76,20-2.08,25.38,4.28S1583,652.38,1574.39,656.38Z"/></g><rect class="cls-10" x="352" y="299" width="900" height="400"/><text class="cls-11" transform="translate(399.34 586.88) scale(0.98 1)">Daily Ui</text><text class="cls-12" transform="translate(399.34 586.88) scale(0.98 1)">Daily Ui</text></svg>