<?xml version="1.0" encoding="UTF-8"?>
<svg xmlns="http://www.w3.org/2000/svg" xmlns:xlink="http://www.w3.org/1999/xlink" width="2500pt" height="2500pt" viewBox="0 0 2500 2500" version="1.1">
<g id="surface1">
<path style=" stroke:none;fill-rule:nonzero;fill:rgb(86.698914%,22.399902%,37.298584%);fill-opacity:1;" d="M 2273.371094 0 L 226.632813 0 C 101.464844 0 0 101.460938 0 226.628906 L 0 2273.371094 C 0 2398.539063 101.464844 2500 226.632813 2500 L 2273.371094 2500 C 2398.539063 2500 2500 2398.539063 2500 2273.371094 L 2500 226.628906 C 2500 101.460938 2398.539063 0 2273.371094 0 "/>
<path style=" stroke:none;fill-rule:nonzero;fill:rgb(100%,100%,100%);fill-opacity:1;" d="M 518.839844 1592.429688 C 509.863281 1630.621094 505.359375 1671.851563 505.359375 1705.480469 C 505.359375 1838.011719 577.226563 1925.988281 729.949219 1925.988281 C 856.609375 1925.988281 959.296875 1850.769531 1033.230469 1729.320313 L 988.085938 1910.5 L 1239.601563 1910.5 L 1383.351563 1333.949219 C 1419.289063 1187.96875 1488.910156 1112.199219 1594.46875 1112.199219 C 1677.570313 1112.199219 1729.21875 1163.878906 1729.21875 1249.191406 C 1729.21875 1273.910156 1726.96875 1300.828125 1717.988281 1330.039063 L 1643.871094 1595.050781 C 1632.640625 1633.230469 1628.160156 1671.441406 1628.160156 1707.339844 C 1628.160156 1833.148438 1702.261719 1925.179688 1857.230469 1925.179688 C 1989.738281 1925.179688 2095.28125 1839.871094 2153.679688 1635.488281 L 2054.871094 1597.339844 C 2005.460938 1734.269531 1962.78125 1759.019531 1929.089844 1759.019531 C 1895.398438 1759.019531 1877.429688 1736.578125 1877.429688 1691.691406 C 1877.429688 1671.46875 1881.941406 1649.039063 1888.660156 1622.03125 L 1960.550781 1363.851563 C 1978.511719 1303.21875 1985.25 1249.460938 1985.25 1200.070313 C 1985.25 1006.921875 1868.460938 906.121094 1726.96875 906.121094 C 1594.46875 906.121094 1459.710938 1025.640625 1392.339844 1151.441406 L 1441.738281 925.648438 L 1057.710938 925.648438 L 1003.808594 1124.519531 L 1183.488281 1124.519531 L 1072.839844 1567.488281 C 985.957031 1760.628906 826.355469 1763.769531 806.328125 1759.289063 C 773.4375 1751.871094 752.402344 1739.378906 752.402344 1696.640625 C 752.402344 1671.980469 756.894531 1636.558594 768.125 1593.859375 L 936.582031 925.648438 L 509.863281 925.648438 L 455.957031 1124.519531 L 633.367188 1124.519531 L 518.847656 1592.429688 M 835.496094 786.570313 C 918.605469 786.570313 988.222656 721.441406 988.222656 636.058594 C 988.222656 550.75 918.605469 485.621094 835.496094 485.621094 C 752.394531 485.621094 682.792969 550.75 682.792969 636.058594 C 682.792969 721.429688 752.394531 786.570313 835.496094 786.570313 "/>
</g>
</svg>
